<mxfile host="app.diagrams.net" agent="Mozilla/5.0 (Windows NT 10.0; Win64; x64) AppleWebKit/537.36 (KHTML, like Gecko) Chrome/137.0.0.0 Safari/537.36" version="27.1.6">
  <diagram name="Page-1" id="8-GkpwidqtBzS7M_V5BT">
    <mxGraphModel dx="1018" dy="646" grid="1" gridSize="10" guides="1" tooltips="1" connect="1" arrows="1" fold="1" page="1" pageScale="1" pageWidth="827" pageHeight="1169" background="#ffffff" math="0" shadow="0">
      <root>
        <mxCell id="0" />
        <mxCell id="1" parent="0" />
        <mxCell id="MAxt--J6X_ddA_qrxUb2-9" style="edgeStyle=orthogonalEdgeStyle;rounded=1;orthogonalLoop=1;jettySize=auto;html=1;sketch=1;curveFitting=1;jiggle=2;fontFamily=Single Day;fontSource=https%3A%2F%2Ffonts.googleapis.com%2Fcss%3Ffamily%3DSingle%2BDay;" edge="1" parent="1" source="MAxt--J6X_ddA_qrxUb2-3" target="MAxt--J6X_ddA_qrxUb2-8">
          <mxGeometry relative="1" as="geometry" />
        </mxCell>
        <mxCell id="MAxt--J6X_ddA_qrxUb2-3" value="&lt;font&gt;&lt;span style=&quot;&quot;&gt;START&lt;/span&gt;&lt;/font&gt;" style="rounded=1;whiteSpace=wrap;html=1;arcSize=50;fillColor=#d5e8d4;strokeColor=#82b366;fontStyle=1;sketch=1;curveFitting=1;jiggle=2;fontFamily=Single Day;fontSource=https%3A%2F%2Ffonts.googleapis.com%2Fcss%3Ffamily%3DSingle%2BDay;fontSize=18;" vertex="1" parent="1">
          <mxGeometry x="354" y="40" width="120" height="60" as="geometry" />
        </mxCell>
        <mxCell id="MAxt--J6X_ddA_qrxUb2-20" style="edgeStyle=orthogonalEdgeStyle;rounded=1;orthogonalLoop=1;jettySize=auto;html=1;sketch=1;curveFitting=1;jiggle=2;fontFamily=Single Day;fontSource=https%3A%2F%2Ffonts.googleapis.com%2Fcss%3Ffamily%3DSingle%2BDay;fontSize=16;" edge="1" parent="1" source="MAxt--J6X_ddA_qrxUb2-7" target="MAxt--J6X_ddA_qrxUb2-18">
          <mxGeometry relative="1" as="geometry" />
        </mxCell>
        <mxCell id="MAxt--J6X_ddA_qrxUb2-21" value="Nej" style="edgeLabel;html=1;align=center;verticalAlign=middle;resizable=0;points=[];rounded=1;sketch=1;curveFitting=1;jiggle=2;fontFamily=Single Day;fontSource=https%3A%2F%2Ffonts.googleapis.com%2Fcss%3Ffamily%3DSingle%2BDay;fontSize=16;" vertex="1" connectable="0" parent="MAxt--J6X_ddA_qrxUb2-20">
          <mxGeometry x="-0.4484" y="-2" relative="1" as="geometry">
            <mxPoint x="2" y="-24" as="offset" />
          </mxGeometry>
        </mxCell>
        <mxCell id="MAxt--J6X_ddA_qrxUb2-25" style="edgeStyle=orthogonalEdgeStyle;rounded=1;orthogonalLoop=1;jettySize=auto;html=1;sketch=1;curveFitting=1;jiggle=2;fontFamily=Single Day;fontSource=https%3A%2F%2Ffonts.googleapis.com%2Fcss%3Ffamily%3DSingle%2BDay;fontSize=16;" edge="1" parent="1" source="MAxt--J6X_ddA_qrxUb2-7" target="MAxt--J6X_ddA_qrxUb2-22">
          <mxGeometry relative="1" as="geometry" />
        </mxCell>
        <mxCell id="MAxt--J6X_ddA_qrxUb2-30" value="Ja" style="edgeLabel;html=1;align=center;verticalAlign=middle;resizable=0;points=[];rounded=1;sketch=1;curveFitting=1;jiggle=2;fontFamily=Single Day;fontSource=https%3A%2F%2Ffonts.googleapis.com%2Fcss%3Ffamily%3DSingle%2BDay;fontSize=16;" vertex="1" connectable="0" parent="MAxt--J6X_ddA_qrxUb2-25">
          <mxGeometry x="-0.2138" y="-3" relative="1" as="geometry">
            <mxPoint x="-1" y="3" as="offset" />
          </mxGeometry>
        </mxCell>
        <mxCell id="MAxt--J6X_ddA_qrxUb2-7" value="Input detected?" style="rhombus;html=1;fontFamily=Single Day;fillColor=#e1d5e7;strokeColor=#9673a6;whiteSpace=wrap;rounded=1;sketch=1;curveFitting=1;jiggle=2;fontSource=https%3A%2F%2Ffonts.googleapis.com%2Fcss%3Ffamily%3DSingle%2BDay;fontSize=16;" vertex="1" parent="1">
          <mxGeometry x="374" y="320" width="80" height="80" as="geometry" />
        </mxCell>
        <mxCell id="MAxt--J6X_ddA_qrxUb2-13" style="edgeStyle=orthogonalEdgeStyle;rounded=1;orthogonalLoop=1;jettySize=auto;html=1;entryX=0.5;entryY=0;entryDx=0;entryDy=0;sketch=1;curveFitting=1;jiggle=2;fontFamily=Single Day;fontSource=https%3A%2F%2Ffonts.googleapis.com%2Fcss%3Ffamily%3DSingle%2BDay;fontSize=16;" edge="1" parent="1" source="MAxt--J6X_ddA_qrxUb2-8" target="MAxt--J6X_ddA_qrxUb2-12">
          <mxGeometry relative="1" as="geometry" />
        </mxCell>
        <mxCell id="MAxt--J6X_ddA_qrxUb2-8" value="Initialize LCD-skærm" style="rounded=1;whiteSpace=wrap;html=1;fillColor=#fff2cc;strokeColor=#d6b656;sketch=1;curveFitting=1;jiggle=2;fontFamily=Single Day;fontSource=https%3A%2F%2Ffonts.googleapis.com%2Fcss%3Ffamily%3DSingle%2BDay;fontSize=16;" vertex="1" parent="1">
          <mxGeometry x="361" y="140" width="106" height="50" as="geometry" />
        </mxCell>
        <mxCell id="MAxt--J6X_ddA_qrxUb2-14" style="edgeStyle=orthogonalEdgeStyle;rounded=1;orthogonalLoop=1;jettySize=auto;html=1;sketch=1;curveFitting=1;jiggle=2;fontFamily=Single Day;fontSource=https%3A%2F%2Ffonts.googleapis.com%2Fcss%3Ffamily%3DSingle%2BDay;fontSize=16;" edge="1" parent="1" source="MAxt--J6X_ddA_qrxUb2-12" target="MAxt--J6X_ddA_qrxUb2-7">
          <mxGeometry relative="1" as="geometry" />
        </mxCell>
        <mxCell id="MAxt--J6X_ddA_qrxUb2-12" value="Vis klar til input på displayet" style="rounded=1;whiteSpace=wrap;html=1;fillColor=#fff2cc;strokeColor=#d6b656;sketch=1;curveFitting=1;jiggle=2;fontFamily=Single Day;fontSource=https%3A%2F%2Ffonts.googleapis.com%2Fcss%3Ffamily%3DSingle%2BDay;fontSize=16;" vertex="1" parent="1">
          <mxGeometry x="361" y="230" width="106" height="50" as="geometry" />
        </mxCell>
        <mxCell id="MAxt--J6X_ddA_qrxUb2-19" style="edgeStyle=orthogonalEdgeStyle;rounded=1;orthogonalLoop=1;jettySize=auto;html=1;entryX=1;entryY=0.5;entryDx=0;entryDy=0;sketch=1;curveFitting=1;jiggle=2;fontFamily=Single Day;fontSource=https%3A%2F%2Ffonts.googleapis.com%2Fcss%3Ffamily%3DSingle%2BDay;fontSize=16;" edge="1" parent="1" source="MAxt--J6X_ddA_qrxUb2-18" target="MAxt--J6X_ddA_qrxUb2-7">
          <mxGeometry relative="1" as="geometry">
            <mxPoint x="500" y="370" as="targetPoint" />
            <mxPoint x="470" y="575" as="sourcePoint" />
            <Array as="points">
              <mxPoint x="521" y="575" />
              <mxPoint x="521" y="360" />
            </Array>
          </mxGeometry>
        </mxCell>
        <mxCell id="MAxt--J6X_ddA_qrxUb2-18" value="Delay" style="rounded=1;whiteSpace=wrap;html=1;fillColor=#fff2cc;strokeColor=#d6b656;fontFamily=Single Day;sketch=1;curveFitting=1;jiggle=2;fontSource=https%3A%2F%2Ffonts.googleapis.com%2Fcss%3Ffamily%3DSingle%2BDay;fontSize=16;" vertex="1" parent="1">
          <mxGeometry x="361" y="550" width="106" height="50" as="geometry" />
        </mxCell>
        <mxCell id="MAxt--J6X_ddA_qrxUb2-26" style="edgeStyle=orthogonalEdgeStyle;rounded=1;orthogonalLoop=1;jettySize=auto;html=1;sketch=1;curveFitting=1;jiggle=2;fontFamily=Single Day;fontSource=https%3A%2F%2Ffonts.googleapis.com%2Fcss%3Ffamily%3DSingle%2BDay;fontSize=16;" edge="1" parent="1" source="MAxt--J6X_ddA_qrxUb2-22" target="MAxt--J6X_ddA_qrxUb2-23">
          <mxGeometry relative="1" as="geometry" />
        </mxCell>
        <mxCell id="MAxt--J6X_ddA_qrxUb2-22" value="Registrer&amp;nbsp;input" style="rounded=1;whiteSpace=wrap;html=1;fillColor=#fff2cc;strokeColor=#d6b656;horizontal=1;fontFamily=Single Day;sketch=1;curveFitting=1;jiggle=2;fontSource=https%3A%2F%2Ffonts.googleapis.com%2Fcss%3Ffamily%3DSingle%2BDay;fontSize=16;" vertex="1" parent="1">
          <mxGeometry x="220" y="335" width="106" height="50" as="geometry" />
        </mxCell>
        <mxCell id="MAxt--J6X_ddA_qrxUb2-28" style="edgeStyle=orthogonalEdgeStyle;rounded=1;orthogonalLoop=1;jettySize=auto;html=1;sketch=1;curveFitting=1;jiggle=2;fontFamily=Single Day;fontSource=https%3A%2F%2Ffonts.googleapis.com%2Fcss%3Ffamily%3DSingle%2BDay;fontSize=16;" edge="1" parent="1" source="MAxt--J6X_ddA_qrxUb2-23" target="MAxt--J6X_ddA_qrxUb2-27">
          <mxGeometry relative="1" as="geometry" />
        </mxCell>
        <mxCell id="MAxt--J6X_ddA_qrxUb2-23" value="Vis visuel confirmation på at svaret er registreret" style="rounded=1;whiteSpace=wrap;html=1;fillColor=#fff2cc;strokeColor=#d6b656;fontFamily=Single Day;sketch=1;curveFitting=1;jiggle=2;fontSource=https%3A%2F%2Ffonts.googleapis.com%2Fcss%3Ffamily%3DSingle%2BDay;fontSize=16;" vertex="1" parent="1">
          <mxGeometry x="220" y="430" width="106" height="70" as="geometry" />
        </mxCell>
        <mxCell id="MAxt--J6X_ddA_qrxUb2-29" style="edgeStyle=orthogonalEdgeStyle;rounded=1;orthogonalLoop=1;jettySize=auto;html=1;sketch=1;curveFitting=1;jiggle=2;fontFamily=Single Day;fontSource=https%3A%2F%2Ffonts.googleapis.com%2Fcss%3Ffamily%3DSingle%2BDay;fontSize=16;" edge="1" parent="1" source="MAxt--J6X_ddA_qrxUb2-27" target="MAxt--J6X_ddA_qrxUb2-18">
          <mxGeometry relative="1" as="geometry" />
        </mxCell>
        <mxCell id="MAxt--J6X_ddA_qrxUb2-27" value="Vidresend input til computer" style="rounded=1;whiteSpace=wrap;html=1;fillColor=#fff2cc;strokeColor=#d6b656;fontFamily=Single Day;sketch=1;curveFitting=1;jiggle=2;fontSource=https%3A%2F%2Ffonts.googleapis.com%2Fcss%3Ffamily%3DSingle%2BDay;fontSize=16;" vertex="1" parent="1">
          <mxGeometry x="220" y="550" width="106" height="50" as="geometry" />
        </mxCell>
        <mxCell id="MAxt--J6X_ddA_qrxUb2-31" value="&lt;font data-font-src=&quot;https://fonts.googleapis.com/css?family=Caveat&quot;&gt;Flowchart over&amp;nbsp;&lt;/font&gt;&lt;div&gt;&lt;font data-font-src=&quot;https://fonts.googleapis.com/css?family=Caveat&quot;&gt;kantinetilfredsheds&amp;nbsp;&lt;/font&gt;&lt;/div&gt;&lt;div&gt;&lt;font data-font-src=&quot;https://fonts.googleapis.com/css?family=Caveat&quot;&gt;arduino&lt;/font&gt;&lt;/div&gt;" style="text;html=1;align=left;verticalAlign=middle;resizable=0;points=[];autosize=1;strokeColor=none;fillColor=none;rounded=1;sketch=1;curveFitting=1;jiggle=2;fontSize=30;fontFamily=Single Day;fontSource=https%3A%2F%2Ffonts.googleapis.com%2Fcss%3Ffamily%3DSingle%2BDay;" vertex="1" parent="1">
          <mxGeometry x="143" y="60" width="260" height="120" as="geometry" />
        </mxCell>
      </root>
    </mxGraphModel>
  </diagram>
</mxfile>
